<svg width="46" height="46" viewBox="0 0 46 46" fill="none" xmlns="http://www.w3.org/2000/svg">
<path d="M13.4169 38.3336V17.2023C13.4169 16.1482 13.8003 15.2537 14.5669 14.519C15.3336 13.7843 16.244 13.4169 17.2982 13.4169H38.3336C39.3877 13.4169 40.2902 13.7923 41.0409 14.543C41.7916 15.2937 42.1669 16.1961 42.1669 17.2502V31.0023C42.1669 31.5134 42.0711 32.0006 41.8794 32.4638C41.6877 32.927 41.4162 33.3343 41.0648 33.6857L33.6857 41.0648C33.3343 41.4162 32.927 41.6877 32.4638 41.8794C32.0006 42.0711 31.5134 42.1669 31.0023 42.1669H17.2502C16.1961 42.1669 15.2937 41.7916 14.543 41.0409C13.7923 40.2902 13.4169 39.3877 13.4169 38.3336ZM3.8815 11.9794C3.68983 10.9253 3.89747 9.9749 4.50442 9.12838C5.11136 8.28185 5.94192 7.76275 6.99608 7.57108L27.7919 3.8815C28.8461 3.68983 29.7964 3.89747 30.643 4.50442C31.4895 5.11136 32.0086 5.94192 32.2002 6.99608L32.6794 9.58358H17.2502C15.1419 9.58358 13.3371 10.3343 11.8357 11.8357C10.3343 13.3371 9.58358 15.1419 9.58358 17.2502V35.5544C9.07247 35.2669 8.63324 34.8836 8.26587 34.4044C7.89851 33.9252 7.66692 33.3822 7.57108 32.7752L3.8815 11.9794ZM25.8752 29.7086V33.5419C25.8752 34.085 26.0589 34.5402 26.4263 34.9075C26.7937 35.2749 27.2489 35.4586 27.7919 35.4586C28.335 35.4586 28.7902 35.2749 29.1575 34.9075C29.5249 34.5402 29.7086 34.085 29.7086 33.5419V29.7086H33.5419C34.085 29.7086 34.5402 29.5249 34.9075 29.1575C35.2749 28.7902 35.4586 28.335 35.4586 27.7919C35.4586 27.2489 35.2749 26.7937 34.9075 26.4263C34.5402 26.0589 34.085 25.8752 33.5419 25.8752H29.7086V22.0419C29.7086 21.4989 29.5249 21.0437 29.1575 20.6763C28.7902 20.3089 28.335 20.1252 27.7919 20.1252C27.2489 20.1252 26.7937 20.3089 26.4263 20.6763C26.0589 21.0437 25.8752 21.4989 25.8752 22.0419V25.8752H22.0419C21.4989 25.8752 21.0437 26.0589 20.6763 26.4263C20.3089 26.7937 20.1252 27.2489 20.1252 27.7919C20.1252 28.335 20.3089 28.7902 20.6763 29.1575C21.0437 29.5249 21.4989 29.7086 22.0419 29.7086H25.8752Z" fill="#CDD1D6"/>
</svg>
