<svg width="20" height="20" viewBox="0 0 20 20" fill="none" xmlns="http://www.w3.org/2000/svg">
<path d="M10.1028 17.6499L10.1008 17.6499L10.0004 17.6499H10V17.4999C8.08456 17.5046 6.24085 16.7716 4.85156 15.453L10.1028 17.6499ZM10.1028 17.6499C12.1138 17.6228 14.0333 16.8049 15.4458 15.3732C16.8583 13.9415 17.6502 12.0111 17.65 9.99985C17.6498 8.48818 17.2017 7.01047 16.3623 5.75326C15.523 4.49604 14.33 3.51568 12.9339 2.93594C11.5378 2.35619 10.0013 2.20306 8.51823 2.49586C7.03627 2.78845 5.67412 3.51323 4.60349 4.57879L2.65 6.36286V4.37487C2.65 4.16932 2.56835 3.9722 2.42301 3.82686C2.27767 3.68152 2.08054 3.59987 1.875 3.59987C1.66946 3.59987 1.47233 3.68152 1.32699 3.82686C1.18165 3.9722 1.1 4.16932 1.1 4.37487V8.12487C1.1 8.33041 1.18165 8.52753 1.32699 8.67288C1.47233 8.81822 1.66946 8.89987 1.875 8.89987H5.625C5.83054 8.89987 6.02767 8.81822 6.17301 8.67288C6.31835 8.52753 6.4 8.33041 6.4 8.12487C6.4 7.91932 6.31835 7.7222 6.17301 7.57686C6.02767 7.43152 5.83054 7.34987 5.625 7.34987H3.86927L5.65981 5.70888C5.66978 5.70023 5.6793 5.69108 5.68835 5.68147C6.53592 4.83494 7.61399 4.25668 8.78809 4.01887C9.96305 3.78089 11.1821 3.89438 12.2929 4.34519C13.4037 4.79599 14.3571 5.56411 15.0339 6.55359C15.7107 7.54307 16.081 8.71004 16.0984 9.90872C16.1158 11.1074 15.7797 12.2847 15.132 13.2934C14.4842 14.3022 13.5536 15.0977 12.4564 15.5806C11.3591 16.0635 10.1439 16.2125 8.96254 16.0088C7.78124 15.8051 6.68613 15.2578 5.81401 14.4354C5.74004 14.3655 5.65301 14.3108 5.5579 14.2744C5.46279 14.2381 5.36145 14.2208 5.25967 14.2237C5.1579 14.2265 5.05768 14.2494 4.96473 14.2909C4.87179 14.3325 4.78794 14.392 4.71798 14.4659C4.64801 14.5399 4.59331 14.6269 4.55697 14.722C4.52064 14.8172 4.5034 14.9185 4.50624 15.0203C4.50907 15.122 4.53192 15.2223 4.57349 15.3152C4.61502 15.4081 4.67442 15.4919 4.7483 15.5618L10.1028 17.6499Z" fill="#202021" stroke="#202021" stroke-width="0.3"/>
</svg>
